<svg width="1209" height="1203" viewBox="0 0 1209 1203" fill="none" xmlns="http://www.w3.org/2000/svg">
<path d="M511.044 51L766.045 52.6494L868.045 79.0398L903.523 90.5856L939.002 105.43L970.045 121.924L996.654 140.068L1018.83 158.211L1038.78 181.303L1056.52 206.044L1072.05 237.382L1078.7 257.175L1083.13 286.864L1085.35 775.087V897.143L1078.7 944.976L1069.83 973.015L1054.31 1004.35L1036.57 1029.09L1018.83 1045.59L994.437 1065.38L970.045 1080.23L930.132 1098.37L888.002 1114.86L828.132 1131.36L774.915 1141.25L695.088 1151.15L670.697 1152.8H548.74L482.218 1147.85L429.001 1141.25L384.653 1133.01L340.305 1121.46L295.957 1106.62L258.261 1090.12L227.218 1071.98L200.609 1053.84L178.435 1034.04L156.261 1006L140.739 974.665L127.435 931.78L123 907.039V806.426L129.652 760.243L140.739 725.605L154.044 699.215L171.783 672.824L198.391 646.434L244.957 611.796L276 595.302L311.479 582.107L342.522 572.211L608.61 506.235L699.523 481.494L746.088 466.649L779.349 453.454L799.306 441.908L821.48 418.816L839.219 385.828L843.654 369.334L845.871 349.542V324.801L843.654 305.008L834.784 285.215L819.262 263.773L794.871 243.98L766.045 230.785L732.784 219.239L692.871 210.992L661.827 207.693H553.175L508.827 212.641L473.349 220.888L442.305 232.434L420.131 247.279L400.175 267.072L382.435 291.813L371.348 318.203L362.479 342.944L358.044 346.243L256.044 349.542H147.391L129.652 346.243L123 337.996V298.41L134.087 248.928L149.609 207.693L169.565 176.354L189.522 156.562L198.391 148.315L216.131 136.769L240.522 121.924L284.87 100.482L320.348 87.2868L346.957 79.0398L411.262 64.1952L462.262 54.2988L466.696 52.6494L511.044 51ZM839.219 616.745L786.001 631.589L717.262 651.382L597.523 682.721L506.61 705.812L466.696 719.008L435.653 735.502L404.609 758.593L384.653 781.685L373.566 799.828L366.914 816.322L364.696 862.505L371.348 893.844L386.87 928.481L400.175 944.976L420.131 961.47L435.653 971.366L466.696 982.912L499.957 991.159L542.088 996.107H648.523L697.306 991.159L737.219 982.912L772.697 969.717L786.001 963.119L797.088 956.521L817.045 935.079L832.567 908.689L841.436 883.948L843.654 869.103L845.871 836.115V628.29L843.654 616.745H839.219Z" fill="#DD4C80"/>
</svg>
